<?xml version="1.0" standalone="no"?>
<!DOCTYPE svg PUBLIC "-//W3C//DTD SVG 20010904//EN"
 "http://www.w3.org/TR/2001/REC-SVG-20010904/DTD/svg10.dtd">
<svg version="1.0" xmlns="http://www.w3.org/2000/svg"
 width="261.000000pt" height="261.000000pt" viewBox="0 0 261.000000 261.000000"
 preserveAspectRatio="xMidYMid meet">
<metadata>
Created by potrace 1.11, written by Peter Selinger 2001-2013
</metadata>
<g transform="translate(0.000000,261.000000) scale(0.100000,-0.100000)"
fill="#000000" stroke="none">
<path d="M1135 2593 c-63 -7 -221 -46 -282 -69 -429 -162 -742 -532 -830 -982
-25 -130 -23 -367 6 -499 109 -515 503 -910 1009 -1012 403 -82 798 19 1111
284 133 112 233 241 316 407 94 188 135 362 135 577 0 363 -126 667 -380 921
-198 199 -435 322 -702 365 -84 13 -302 18 -383 8z"/>
</g>
</svg>
